<svg width="17" height="22" viewBox="0 0 19 23" fill="none" xmlns="http://www.w3.org/2000/svg">
<path fill-rule="evenodd" clip-rule="evenodd" d="M16.4509 4.38998C16.9634 4.38987 17.3856 4.7452 17.41 5.19713L18.2787 21.2995C18.2912 21.5311 18.1957 21.757 18.0145 21.9248C17.8333 22.0925 17.5822 22.1874 17.3197 22.1874H1.95965C1.69717 22.1873 1.44618 22.0923 1.26509 21.9246C1.084 21.7569 0.988596 21.531 1.00109 21.2995L1.8697 5.19713C1.89409 4.74523 2.31626 4.38992 2.82874 4.38998H5.84631C5.84631 2.51775 7.56553 1 9.68631 1C11.8071 1 13.5263 2.51775 13.5263 4.38998H16.4509ZM12.5665 4.50084C12.5647 3.0514 11.2763 1.87681 9.68643 1.87517C8.09654 1.87681 6.80813 3.0514 6.80634 4.50084H12.5665ZM2.82825 5.37608H5.84582V8.34198C5.84582 8.57599 6.06072 8.76568 6.32582 8.76568C6.59091 8.76568 6.80582 8.57599 6.80582 8.34198V5.37608H12.5658V8.34198C12.5658 8.57599 12.7807 8.76568 13.0458 8.76568C13.3109 8.76568 13.5258 8.57599 13.5258 8.34198V5.37608H16.4393L17.1338 18.0871H2.14252L2.82825 5.37608ZM2.0969 18.7975L1.95972 21.423H17.3196L17.1805 18.7975H2.0969Z" fill="white"/>
<path d="M17.41 5.19713L17.9093 5.1702V5.17019L17.41 5.19713ZM16.4509 4.38998V4.88998H16.451L16.4509 4.38998ZM18.2787 21.2995L17.7794 21.3265V21.3265L18.2787 21.2995ZM17.3197 22.1874L17.3197 21.6874H17.3197V22.1874ZM1.95965 22.1874L1.95949 22.6874H1.95965V22.1874ZM1.26509 21.9246L0.925327 22.2914L0.925329 22.2914L1.26509 21.9246ZM1.00109 21.2995L1.50036 21.3265L1.50036 21.3265L1.00109 21.2995ZM1.8697 5.19713L1.37042 5.17018L1.37042 5.1702L1.8697 5.19713ZM2.82874 4.38998L2.82868 4.88998H2.82874V4.38998ZM5.84631 4.38998V4.88998H6.34631V4.38998H5.84631ZM13.5263 4.38998H13.0263V4.88998H13.5263V4.38998ZM9.68643 1.87517L9.68695 1.37517L9.68592 1.37517L9.68643 1.87517ZM12.5665 4.50084V5.00084H13.0671L13.0665 4.50022L12.5665 4.50084ZM6.80634 4.50084L6.30634 4.50022L6.30571 5.00084H6.80634V4.50084ZM5.84582 5.37608H6.34582V4.87608H5.84582V5.37608ZM2.82825 5.37608V4.87608H2.35449L2.32897 5.34915L2.82825 5.37608ZM6.80582 5.37608V4.87608H6.30582V5.37608H6.80582ZM12.5658 5.37608H13.0658V4.87608H12.5658V5.37608ZM13.5258 5.37608V4.87608H13.0258V5.37608H13.5258ZM16.4393 5.37608L16.9386 5.34881L16.9128 4.87608H16.4393V5.37608ZM17.1338 18.0871V18.5871H17.6619L17.633 18.0598L17.1338 18.0871ZM2.14252 18.0871L1.64324 18.0601L1.61482 18.5871H2.14252V18.0871ZM1.95972 21.423L1.4604 21.3969L1.43291 21.923H1.95972V21.423ZM2.0969 18.7975V18.2975H1.62234L1.59758 18.7714L2.0969 18.7975ZM17.3196 21.423V21.923H17.8468L17.8189 21.3965L17.3196 21.423ZM17.1805 18.7975L17.6798 18.771L17.6547 18.2975H17.1805V18.7975ZM17.9093 5.17019C17.8677 4.40073 17.1734 3.88983 16.4508 3.88998L16.451 4.88998C16.7534 4.88992 16.9035 5.08967 16.9107 5.22408L17.9093 5.17019ZM18.778 21.2726L17.9093 5.1702L16.9107 5.22407L17.7794 21.3265L18.778 21.2726ZM18.3542 22.2917C18.6364 22.0304 18.7991 21.6633 18.778 21.2726L17.7794 21.3265C17.7833 21.3988 17.755 21.4836 17.6749 21.5578L18.3542 22.2917ZM17.3196 22.6874C17.6994 22.6874 18.0743 22.5507 18.3542 22.2917L17.6749 21.5578C17.5923 21.6343 17.4651 21.6874 17.3197 21.6874L17.3196 22.6874ZM1.95965 22.6874H17.3197V21.6874H1.95965V22.6874ZM0.925329 22.2914C1.20503 22.5505 1.57982 22.6873 1.95949 22.6874L1.95981 21.6874C1.81452 21.6873 1.68733 21.6342 1.60485 21.5578L0.925329 22.2914ZM0.501816 21.2726C0.480733 21.6632 0.643265 22.0302 0.925327 22.2914L1.60485 21.5578C1.52473 21.4836 1.49646 21.3988 1.50036 21.3265L0.501816 21.2726ZM1.37042 5.1702L0.501815 21.2726L1.50036 21.3265L2.36897 5.22407L1.37042 5.1702ZM2.8288 3.88998C2.10624 3.8899 1.41196 4.40078 1.37042 5.17018L2.36897 5.22409C2.37623 5.08968 2.52628 4.88995 2.82868 4.88998L2.8288 3.88998ZM5.84631 3.88998H2.82874V4.88998H5.84631V3.88998ZM9.68631 0.5C7.34978 0.5 5.34631 2.18485 5.34631 4.38998H6.34631C6.34631 2.85064 7.78129 1.5 9.68631 1.5V0.5ZM14.0263 4.38998C14.0263 2.18485 12.0228 0.5 9.68631 0.5V1.5C11.5913 1.5 13.0263 2.85064 13.0263 4.38998H14.0263ZM16.4509 3.88998H13.5263V4.88998H16.4509V3.88998ZM9.68592 2.37517C11.0445 2.37657 12.0651 3.37009 12.0665 4.50146L13.0665 4.50022C13.0643 2.73271 11.5082 1.37705 9.68695 1.37517L9.68592 2.37517ZM7.30633 4.50146C7.30774 3.37009 8.32838 2.37657 9.68695 2.37517L9.68592 1.37517C7.86471 1.37705 6.30853 2.73271 6.30634 4.50022L7.30633 4.50146ZM12.5665 4.00084H6.80634V5.00084H12.5665V4.00084ZM5.84582 4.87608H2.82825V5.87608H5.84582V4.87608ZM6.34582 8.34198V5.37608H5.34582V8.34198H6.34582ZM6.32582 8.26568C6.31207 8.26568 6.31053 8.26076 6.31729 8.26673C6.32098 8.26999 6.32803 8.27745 6.33444 8.29085C6.34117 8.30487 6.34582 8.32274 6.34582 8.34198H5.34582C5.34582 8.90893 5.84502 9.26568 6.32582 9.26568V8.26568ZM6.30582 8.34198C6.30582 8.32274 6.31046 8.30487 6.31719 8.29085C6.3236 8.27745 6.33065 8.26999 6.33434 8.26673C6.3411 8.26076 6.33956 8.26568 6.32582 8.26568V9.26568C6.80661 9.26568 7.30582 8.90893 7.30582 8.34198H6.30582ZM6.30582 5.37608V8.34198H7.30582V5.37608H6.30582ZM12.5658 4.87608H6.80582V5.87608H12.5658V4.87608ZM13.0658 8.34198V5.37608H12.0658V8.34198H13.0658ZM13.0458 8.26568C13.0321 8.26568 13.0305 8.26076 13.0373 8.26673C13.041 8.26999 13.048 8.27745 13.0544 8.29085C13.0612 8.30487 13.0658 8.32274 13.0658 8.34198H12.0658C12.0658 8.90893 12.565 9.26568 13.0458 9.26568V8.26568ZM13.0258 8.34198C13.0258 8.32274 13.0305 8.30487 13.0372 8.29085C13.0436 8.27745 13.0507 8.26999 13.0543 8.26673C13.0611 8.26076 13.0596 8.26568 13.0458 8.26568V9.26568C13.5266 9.26568 14.0258 8.90893 14.0258 8.34198H13.0258ZM13.0258 5.37608V8.34198H14.0258V5.37608H13.0258ZM16.4393 4.87608H13.5258V5.87608H16.4393V4.87608ZM17.633 18.0598L16.9386 5.34881L15.9401 5.40336L16.6345 18.1144L17.633 18.0598ZM2.14252 18.5871H17.1338V17.5871H2.14252V18.5871ZM2.32897 5.34915L1.64324 18.0601L2.64179 18.114L3.32752 5.40302L2.32897 5.34915ZM2.45904 21.4491L2.59622 18.8236L1.59758 18.7714L1.4604 21.3969L2.45904 21.4491ZM17.3196 20.923H1.95972V21.923H17.3196V20.923ZM16.6812 18.8239L16.8203 21.4494L17.8189 21.3965L17.6798 18.771L16.6812 18.8239ZM2.0969 19.2975H17.1805V18.2975H2.0969V19.2975Z" fill="white"/>
</svg>
