<svg width="15" height="13" viewBox="0 0 15 13" fill="none" xmlns="http://www.w3.org/2000/svg">
<path d="M13.4582 3.16008C13.4677 3.29876 13.4677 3.43747 13.4677 3.57616C13.4677 7.80611 10.3744 12.68 4.72083 12.68C2.97906 12.68 1.36105 12.1549 0 11.2436C0.247472 11.2733 0.485393 11.2832 0.742386 11.2832C2.17955 11.2832 3.50254 10.778 4.55902 9.91617C3.20749 9.88644 2.07487 8.96516 1.68464 7.69715C1.87501 7.72685 2.06535 7.74667 2.26524 7.74667C2.54125 7.74667 2.81729 7.70703 3.07425 7.63772C1.66562 7.34051 0.609114 6.05271 0.609114 4.49743V4.45782C1.01836 4.69557 1.49429 4.84416 1.9987 4.86395C1.17065 4.28938 0.628157 3.30867 0.628157 2.19917C0.628157 1.6048 0.780413 1.05996 1.04693 0.584454C2.56026 2.52608 4.83503 3.79406 7.38577 3.93277C7.33819 3.69502 7.30963 3.44738 7.30963 3.19972C7.30963 1.43639 8.6802 0 10.3839 0C11.269 0 12.0685 0.386343 12.6301 1.01044C13.3249 0.871756 13.9911 0.604274 14.5812 0.237752C14.3528 0.980737 13.8674 1.60483 13.2297 2.00105C13.8484 1.93174 14.448 1.75339 15 1.50576C14.5813 2.13973 14.0578 2.70437 13.4582 3.16008Z" fill="#2FABF0"/>
</svg>
